<svg width="12" height="20" viewBox="0 0 12 20" fill="none" xmlns="http://www.w3.org/2000/svg">
<path d="M2 0C0.89 0 0 0.89 0 2V14C0 15.11 0.89 16 2 16H3V18H0V20H3C4.11 20 5 19.11 5 18V16H7V18C7 19.11 7.89 20 9 20H12V18H9V16H10C11.11 16 12 15.11 12 14V2C12 0.89 11.11 0 10 0H2ZM6 2.97C6.53043 2.97 7.03914 3.18071 7.41421 3.55579C7.78929 3.93086 8 4.43957 8 4.97C8 5.50043 7.78929 6.00914 7.41421 6.38421C7.03914 6.75929 6.53043 6.97 6 6.97C5.46957 6.97 4.96086 6.75929 4.58579 6.38421C4.21071 6.00914 4 5.50043 4 4.97C4 4.43957 4.21071 3.93086 4.58579 3.55579C4.96086 3.18071 5.46957 2.97 6 2.97ZM4 12.5H8V14H4V12.5Z" fill="#434345"/>
</svg>
